<?xml version="1.0" encoding="UTF-8" standalone="no"?>
<!-- Created with Inkscape (http://www.inkscape.org/) -->

<svg
   xmlns:osb="http://www.openswatchbook.org/uri/2009/osb"
   xmlns:dc="http://purl.org/dc/elements/1.1/"
   xmlns:cc="http://creativecommons.org/ns#"
   xmlns:rdf="http://www.w3.org/1999/02/22-rdf-syntax-ns#"
   xmlns:svg="http://www.w3.org/2000/svg"
   xmlns="http://www.w3.org/2000/svg"
   xmlns:sodipodi="http://sodipodi.sourceforge.net/DTD/sodipodi-0.dtd"
   xmlns:inkscape="http://www.inkscape.org/namespaces/inkscape"
   width="150"
   height="150"
   viewBox="0 0 150 150"
   id="svg2"
   version="1.1"
   inkscape:version="0.48.5 r10040"
   sodipodi:docname="ethernetjack.svg"
   inkscape:export-filename="/home/dehnhardt/Graphik/midijack.png"
   inkscape:export-xdpi="90"
   inkscape:export-ydpi="90">
  <defs
     id="defs4">
    <linearGradient
       id="linearGradient4186"
       osb:paint="gradient">
      <stop
         style="stop-color:#909090;stop-opacity:1;"
         offset="0"
         id="stop4188" />
      <stop
         style="stop-color:#909090;stop-opacity:0;"
         offset="1"
         id="stop4190" />
    </linearGradient>
  </defs>
  <sodipodi:namedview
     id="base"
     pagecolor="#ffffff"
     bordercolor="#666666"
     borderopacity="1.0"
     inkscape:pageopacity="0.0"
     inkscape:pageshadow="2"
     inkscape:zoom="3.77"
     inkscape:cx="107.83236"
     inkscape:cy="67.287887"
     inkscape:document-units="px"
     inkscape:current-layer="layer1"
     showgrid="false"
     inkscape:window-width="1920"
     inkscape:window-height="979"
     inkscape:window-x="-4"
     inkscape:window-y="50"
     inkscape:window-maximized="1"
     showguides="true"
     inkscape:guide-bbox="true"
     fit-margin-top="0"
     fit-margin-left="0"
     fit-margin-right="0"
     fit-margin-bottom="0">
    <sodipodi:guide
       position="74.626578,81.162188"
       orientation="1,0"
       id="guide6663" />
    <sodipodi:guide
       position="74.626578,81.162188"
       orientation="0,1"
       id="guide6665" />
  </sodipodi:namedview>
  <metadata
     id="metadata7">
    <rdf:RDF>
      <cc:Work
         rdf:about="">
        <dc:format>image/svg+xml</dc:format>
        <dc:type
           rdf:resource="http://purl.org/dc/dcmitype/StillImage" />
        <dc:title></dc:title>
      </cc:Work>
    </rdf:RDF>
  </metadata>
  <g
     inkscape:label="Ebene 1"
     inkscape:groupmode="layer"
     id="layer1"
     transform="translate(-183.83055,-365.49232)">
    <path
       inkscape:connector-curvature="0"
       d="M 312.56949,379.81819 H 204.34477 c -6.94491,0 -12.58764,5.64273 -12.58764,12.58764 v 81.16854 c 0,6.9449 5.64273,12.58763 12.58764,12.58763 h 108.22472 c 6.9449,0 12.58764,-5.64273 12.58764,-12.58763 v -81.16854 c 0,-6.94491 -5.64274,-12.58764 -12.58764,-12.58764 z m -65.97657,35.15857 v -10.12799 c 0,-1.01279 0.86811,-1.73622 1.73623,-1.73622 h 0.14468 c 1.0128,0 1.73623,0.86811 1.73623,1.73622 v 10.12799 c 0,1.0128 -0.86812,1.73622 -1.73623,1.73622 h -0.14468 c -0.86812,0.14469 -1.73623,-0.72342 -1.73623,-1.73622 z m 9.9833,0 v -10.12799 c 0,-1.01279 0.86811,-1.73622 1.73622,-1.73622 h 0.14469 c 1.0128,0 1.73622,0.86811 1.73622,1.73622 v 10.12799 c 0,1.0128 -0.86811,1.73622 -1.73622,1.73622 h -0.14469 c -0.86811,0.14469 -1.73622,-0.72342 -1.73622,-1.73622 z m 9.98329,0 v -10.12799 c 0,-1.01279 0.86812,-1.73622 1.73623,-1.73622 h 0.14468 c 1.0128,0 1.73623,0.86811 1.73623,1.73622 v 10.12799 c 0,1.0128 -0.86811,1.73622 -1.73623,1.73622 h 0 c -1.01279,0.14469 -1.88091,-0.72342 -1.88091,-1.73622 z m 51.7974,58.59761 c 0,3.18308 -2.60434,5.78742 -5.78742,5.78742 h -37.03948 v -5.49805 c 0,-0.72343 0.57874,-1.44685 1.44686,-1.44685 h 9.83861 c 0.72343,0 1.44685,-0.57875 1.44685,-1.44686 v -5.49805 c 0,-0.72342 0.57875,-1.44685 1.44686,-1.44685 h 20.40065 c 0.72343,0 1.44685,-0.57874 1.44685,-1.44686 v -65.6872 c 0,-0.72342 -0.57874,-1.44685 -1.44685,-1.44685 H 207.09379 c -0.72343,0 -1.44686,0.57874 -1.44686,1.44685 v 65.97658 c 0,0.72342 0.57875,1.44685 1.44686,1.44685 h 20.40065 c 0.72343,0 1.44685,0.57874 1.44685,1.44685 v 5.49805 c 0,0.72343 0.57875,1.44686 1.44686,1.44686 h 9.83861 c 0.72343,0 1.44685,0.57874 1.44685,1.44685 v 5.49805 h -37.32884 c -3.18308,0 -5.78742,-2.60434 -5.78742,-5.78742 v -81.45791 c 0,-3.18308 2.60434,-5.78742 5.78742,-5.78742 h 108.22472 c 3.18308,0 5.78742,2.60434 5.78742,5.78742 v 81.16854 z m -41.8141,-58.59761 v -10.12799 c 0,-1.01279 0.86811,-1.73622 1.73623,-1.73622 h 0.28937 c 1.0128,0 1.73622,0.86811 1.73622,1.73622 v 10.12799 c 0,1.0128 -0.86811,1.73622 -1.73622,1.73622 h -0.14469 c -1.0128,0.14469 -1.88091,-0.72342 -1.88091,-1.73622 z m 9.9833,0 v -10.12799 c 0,-1.01279 0.86811,-1.73622 1.73622,-1.73622 h 0.14469 c 1.0128,0 1.73622,0.86811 1.73622,1.73622 v 10.12799 c 0,1.0128 -0.86811,1.73622 -1.73622,1.73622 h -0.14469 c -0.86811,0.14469 -1.73622,-0.72342 -1.73622,-1.73622 z m -46.15466,-10.12799 v 10.12799 c 0,1.0128 -0.86812,1.73622 -1.73623,1.73622 h -0.14469 c -1.01279,0 -1.73622,-0.86811 -1.73622,-1.73622 v -10.12799 c 0,-1.01279 0.86811,-1.73622 1.73622,-1.73622 h 0.14469 c 1.0128,0 1.73623,0.86811 1.73623,1.73622 z m -9.9833,0 v 10.12799 c 0,1.0128 -0.86811,1.73622 -1.73623,1.73622 h -0.14468 c -1.0128,0 -1.73623,-0.86811 -1.73623,-1.73622 v -10.12799 c 0,-1.01279 0.86811,-1.73622 1.73623,-1.73622 h 0.14468 c 1.0128,0 1.73623,0.86811 1.73623,1.73622 z"
       id="path3979" />
  </g>
</svg>
