<?xml version="1.0" encoding="UTF-8" standalone="no"?>
<svg
   xmlns:dc="http://purl.org/dc/elements/1.1/"
   xmlns:cc="http://creativecommons.org/ns#"
   xmlns:rdf="http://www.w3.org/1999/02/22-rdf-syntax-ns#"
   xmlns:svg="http://www.w3.org/2000/svg"
   xmlns="http://www.w3.org/2000/svg"
   xmlns:sodipodi="http://sodipodi.sourceforge.net/DTD/sodipodi-0.dtd"
   xmlns:inkscape="http://www.inkscape.org/namespaces/inkscape"
   viewBox="0 0 86.959999 86.960022"
   x="0px"
   y="0px"
   version="1.1"
   id="svg18"
   sodipodi:docname="xlrjack.svg"
   inkscape:version="0.92.3 (2405546, 2018-03-11)"
   width="86.959999"
   height="86.960022">
  <metadata
     id="metadata24">
    <rdf:RDF>
      <cc:Work
         rdf:about="">
        <dc:format>image/svg+xml</dc:format>
        <dc:type
           rdf:resource="http://purl.org/dc/dcmitype/StillImage" />
        <dc:title>XLR - female detail</dc:title>
      </cc:Work>
    </rdf:RDF>
  </metadata>
  <defs
     id="defs22" />
  <sodipodi:namedview
     pagecolor="#ffffff"
     bordercolor="#666666"
     borderopacity="1"
     objecttolerance="10"
     gridtolerance="10"
     guidetolerance="10"
     inkscape:pageopacity="0"
     inkscape:pageshadow="2"
     inkscape:window-width="1033"
     inkscape:window-height="709"
     id="namedview20"
     showgrid="false"
     inkscape:zoom="1.888"
     inkscape:cx="43.495334"
     inkscape:cy="30.959997"
     inkscape:window-x="470"
     inkscape:window-y="74"
     inkscape:window-maximized="0"
     inkscape:current-layer="svg18" />
  <title
     id="title2">XLR - female detail</title>
  <path
     d="M 43.495334,2.5776686e-5 A 43.27,43.27 0 0 0 17.345334,8.7600258 h -4.09 a 3.09,3.09 0 0 0 -3.09,3.0900002 c 0,1.21 0,2.84 0,3.69 a 43.48,43.48 0 1 0 33.33,-15.540000223314 z m 0,85.000000223314 a 41.5,41.5 0 1 1 41.5,-41.5 41.55,41.55 0 0 1 -41.5,41.5 z"
     id="path4"
     inkscape:connector-curvature="0" />
  <circle
     cx="22.065334"
     cy="45.570026"
     r="7.3200002"
     id="circle6" />
  <circle
     cx="64.755333"
     cy="45.570026"
     r="7.3200002"
     id="circle8" />
  <circle
     cx="43.495335"
     cy="64.680023"
     r="7.3200002"
     id="circle10" />
  <path
     d="m 67.275334,19.640026 -0.14,-0.14 h -47.28 l -0.15,0.14 a 34,34 0 1 0 47.57,0 z m -23.78,57.34 a 33,33 0 0 1 -23.23,-56.48 h 46.46 a 33,33 0 0 1 -23.23,56.48 z"
     id="path12"
     inkscape:connector-curvature="0" />
</svg>
